<svg xmlns="http://www.w3.org/2000/svg" xmlns:xlink="http://www.w3.org/1999/xlink" fill="#e63839" height="38" preserveAspectRatio="xMidYMid meet" version="1" viewBox="1.0 1.0 38.0 38.0" width="38" zoomAndPan="magnify"><g data-name="Layer 2" id="change1_1"><path d="M32.989,13.924c0-.03,0-.059-.009-.089A4.033,4.033,0,0,0,28.963,10H11.037A4.033,4.033,0,0,0,7.02,13.835c0,.031-.006.059-.009.09S7,14,7,14.037V25.963A4.042,4.042,0,0,0,11.037,30H28.963A4.043,4.043,0,0,0,33,25.963V14.037C33,14,32.99,13.963,32.989,13.924ZM11.037,12H28.963a2.034,2.034,0,0,1,1.949,1.477L20,19.842,9.088,13.477A2.034,2.034,0,0,1,11.037,12ZM28.963,28H11.037A2.04,2.04,0,0,1,9,25.963V15.741l10.5,6.123a1,1,0,0,0,1.008,0L31,15.741V25.963A2.04,2.04,0,0,1,28.963,28Z" fill="inherit"/><path d="M20,1A19,19,0,1,0,39,20,19.021,19.021,0,0,0,20,1Zm0,36A17,17,0,1,1,37,20,17.019,17.019,0,0,1,20,37Z" fill="inherit"/></g></svg>