<svg xmlns="http://www.w3.org/2000/svg" xmlns:xlink="http://www.w3.org/1999/xlink" fill="#e63839" height="77.7" preserveAspectRatio="xMidYMid meet" version="1" viewBox="-0.0 -0.1 79.8 77.7" width="79.8" zoomAndPan="magnify"><g data-name="43" id="change1_1"><path d="M40.1,34.191a1.316,1.316,0,0,0,.378.056,1.343,1.343,0,0,0,.366-.052,22.8,22.8,0,0,0,9.564-6.148c2.756-2.913,4.274-6.015,4.274-8.737l0-11.188a1.3,1.3,0,0,0-.7-1.157L41.086.15a1.312,1.312,0,0,0-1.22,0L27.057,6.923a1.316,1.316,0,0,0-.783,1.2V19.311c0,2.722,1.518,5.825,4.274,8.737A22.816,22.816,0,0,0,40.1,34.191ZM28.9,8.911l11.58-6.122L52.055,8.911v10.4c0,2.055-1.26,4.52-3.548,6.942a20.511,20.511,0,0,1-8.03,5.319,20.507,20.507,0,0,1-8.031-5.319c-2.288-2.42-3.548-4.885-3.548-6.942Zm4.327,9.963a1.309,1.309,0,1,1,2.131-1.52L37.2,19.927l8.537-8.549a1.341,1.341,0,0,1,1.85-.005,1.31,1.31,0,0,1,.006,1.851h0l-9.631,9.644a1.312,1.312,0,0,1-1.85.005,1.288,1.288,0,0,1-.146-.173ZM79.81,36.694a6.034,6.034,0,0,0-1.763-4.276l0-.006a6.033,6.033,0,0,0-4.147-1.76,5.775,5.775,0,0,0-.249-1.165,6.07,6.07,0,0,0-1.5-2.409h-.006a6.028,6.028,0,0,0-4.276-1.761V25.31a6.038,6.038,0,0,0-4.28,1.768l-15.3,15.3L20.556,42.4a.938.938,0,0,0-.105-.012,6.087,6.087,0,0,0-2.543.369,6,6,0,0,0-2.077,1.307l-.08.074L.377,59.516a1.281,1.281,0,0,0-.371,1V76.243L0,76.357A1.283,1.283,0,0,0,1.283,77.64l14,0a1.276,1.276,0,0,0,.922-.393l3.486-3.626,32.064-8.071a10.573,10.573,0,0,0,3.1-1.69,24.632,24.632,0,0,0,2.818-2.523l.015-.018a.839.839,0,0,0,.11-.1L78.045,40.974a6.037,6.037,0,0,0,1.768-4.28Zm-14.4-7.8a3.481,3.481,0,0,1,2.468-1.015v-.006a3.559,3.559,0,0,1,3.342,2.406,3.2,3.2,0,0,1,.154.858,6.042,6.042,0,0,0-1.882,1.273L54.8,47.1a6.017,6.017,0,0,0-1.628-2.951,6.083,6.083,0,0,0-1.784-1.237ZM77.25,36.7v0a3.485,3.485,0,0,1-1.016,2.468L55.99,59.406c-.019.02-.037.042-.055.064s-.06.054-.09.082a22.062,22.062,0,0,1-2.516,2.262,8.149,8.149,0,0,1-2.265,1.269l-32.348,8.14a1.268,1.268,0,0,0-.658.405l-3.314,3.448H2.56V60.958L17.619,45.9a3.455,3.455,0,0,1,1.179-.74,3.574,3.574,0,0,1,1.481-.21c.024,0,.048,0,.072,0a1.435,1.435,0,0,0,.161.012l28.381-.024,0,.006a3.463,3.463,0,0,1,2.458,1.02v.006a3.487,3.487,0,0,1,1.032,2.46l-.006,0a3.5,3.5,0,0,1-3.488,3.488H29.139a1.283,1.283,0,1,0,0,2.566H48.893a6.073,6.073,0,0,0,5.315-3.167L71.3,34.23a3.486,3.486,0,0,1,2.469-1.016v-.006A3.474,3.474,0,0,1,77.253,36.7Z"/></g></svg>