<svg xmlns="http://www.w3.org/2000/svg" xmlns:xlink="http://www.w3.org/1999/xlink" fill="#000000" height="687.2" preserveAspectRatio="xMidYMid meet" version="1" viewBox="702.4 656.4 595.2 687.2" width="595.2" zoomAndPan="magnify"><g id="change1_1"><path d="M 1000 656.390625 L 702.421875 828.191406 L 702.421875 838.980469 C 702.421875 902.171875 712.875 964.808594 733.054688 1024.289062 C 733.050781 1024.289062 733.046875 1024.289062 733.042969 1024.289062 C 735.929688 1032.800781 739.03125 1041.238281 742.320312 1049.609375 C 742.535156 1050.160156 742.753906 1050.71875 742.972656 1051.28125 C 743.539062 1052.699219 744.109375 1054.128906 744.6875 1055.550781 C 744.914062 1056.101562 745.132812 1056.660156 745.359375 1057.21875 L 745.371094 1057.21875 C 748.640625 1065.210938 752.082031 1073.140625 755.710938 1080.988281 C 1023 992.601562 1046.378906 845.988281 1046.378906 845.988281 C 987.371094 954.128906 847.246094 1000.011719 770.289062 1017.191406 C 751.5625 963.949219 741.058594 907.480469 739.898438 849.710938 L 1000 699.539062 L 1260.101562 849.710938 C 1256.398438 1033.988281 1157.71875 1204.960938 1000 1300.328125 C 942.753906 1265.71875 893.304688 1221.140625 853.335938 1169.578125 C 1090.941406 1003.898438 1083.210938 806.640625 1083.210938 806.640625 C 1023.628906 1035.980469 820.992188 1116.570312 781.453125 1130.28125 C 788.066406 1141.570312 795.066406 1152.609375 802.40625 1163.398438 C 802.40625 1163.398438 802.40625 1163.398438 802.402344 1163.398438 C 802.664062 1163.78125 802.933594 1164.160156 803.195312 1164.550781 C 804.449219 1166.378906 805.714844 1168.21875 806.992188 1170.039062 C 807.027344 1170.089844 807.066406 1170.140625 807.105469 1170.199219 C 811.90625 1177.03125 816.839844 1183.769531 821.925781 1190.378906 C 821.929688 1190.371094 821.9375 1190.371094 821.941406 1190.371094 C 867.832031 1250.011719 925.160156 1300.410156 990.65625 1338.21875 L 1000 1343.609375 L 1009.339844 1338.21875 C 1096.859375 1287.691406 1169.820312 1214.730469 1220.351562 1127.21875 C 1270.871094 1039.699219 1297.578125 940.03125 1297.578125 838.980469 L 1297.578125 828.191406 L 1000 656.390625" fill="#acaaa8"/></g></svg>