<svg xmlns="http://www.w3.org/2000/svg" xmlns:xlink="http://www.w3.org/1999/xlink" fill="#0b0909" height="950" preserveAspectRatio="xMidYMid meet" version="1" viewBox="66.2 25.0 867.5 950.0" width="867.5" zoomAndPan="magnify"><g id="change1_1"><path d="M924.2,790.7L769,508.4c18.5-10.9,38.6-24.7,46.6-49.3c8.9-27.3-2.8-53.3-12.2-74.2c-4.4-9.8-9.9-22-9.9-28.3 c0-6.3,5.5-18.5,9.9-28.3c9.4-20.9,21-46.9,12.2-74.2c-9.2-28.2-34.5-42.6-54.8-54.2c-9-5.1-20.1-11.4-23.3-15.8 c-3.3-4.6-6-17.3-8.1-27.5c-4.7-22.8-10.6-51.1-34.3-68.3c-23.5-17.1-52-14.1-75.1-11.6c-10.4,1.1-23.5,2.6-29.2,0.7 c-4.9-1.6-14.6-10.4-21.6-16.9C551.7,44.7,530,25,500,25s-51.7,19.7-69,35.6c-7,6.5-16.8,15.3-21.6,16.9 c-5.7,1.8-18.8,0.4-29.2-0.7c-23-2.5-51.6-5.6-75.1,11.6c-23.7,17.2-29.6,45.5-34.3,68.2c-2.1,10.2-4.8,23-8.2,27.6 c-3.2,4.4-14.4,10.7-23.3,15.9c-20.3,11.6-45.6,25.9-54.7,54.1c-8.9,27.3,2.8,53.3,12.2,74.2c4.4,9.8,9.9,22,9.9,28.3 c0,6.2-5.5,18.5-9.9,28.3c-9.4,20.9-21,46.9-12.2,74.2c8,24.5,28,38.4,46.5,49.3L75.8,790.7c-9.6,17.7-8.6,39.2,2.4,55.9 c11,16.7,29.6,26.3,50.1,24.3l92.6-7.6l43.5,82.6c9.1,17.7,27.2,28.6,47.3,29.1c0.5,0,0.5,0,1,0c19.6,0,37.7-11,47.3-28.2 l140.4-254.9l139.9,254.9c9.5,17.2,27.7,28.2,47.3,28.2c0.5,0,0.5,0,1,0c20.1-0.5,38.2-11.4,47.3-29.1l43.5-82.6l92.6,7.6 c20.5,1.9,39.1-7.6,50.1-24.3C932.8,829.9,933.7,808.4,924.2,790.7z M272.3,258.1c15.3-8.7,32.7-18.6,44.3-34.6 c11.8-16.2,15.9-35.9,19.5-53.3c2-9.2,5.1-24.6,7.9-27.6c4.2-2,19.7-0.3,28.9,0.7c17.7,1.9,37.8,4.1,57-2.2 c18.6-6.1,33.2-19.4,46.1-31.1c6.8-6.2,19.3-17.6,23.9-18.1c4.7,0.5,17.2,11.9,24,18.1c12.9,11.7,27.5,25.1,46.1,31.1 c19.2,6.2,39.3,4.1,57,2.2c9.2-1,24.7-2.7,28.4-1c3.3,3.4,6.5,18.8,8.4,28c3.6,17.3,7.7,37,19.5,53.2c11.7,16,29,25.9,44.3,34.6 c8.3,4.7,22.2,12.6,24.1,16.2c0.5,4.6-5.8,18.5-9.5,26.8c-7.4,16.4-15.8,35.1-15.8,55.6c0,20.5,8.3,39.2,15.8,55.6 c3.7,8.3,9.9,22.2,9.7,26c-2.1,4.2-16,12.1-24.3,16.9c-15.3,8.7-32.7,18.6-44.3,34.6c-11.8,16.2-15.9,35.9-19.5,53.3 c-1.9,9.2-5.1,24.6-7.9,27.6c-4.2,2-19.7,0.3-28.9-0.7c-17.7-1.9-37.7-4.1-57,2.2c-18.6,6-33.2,19.4-46.1,31.1 c-6.8,6.2-19.3,17.6-23.9,18.1c-4.7-0.5-17.2-11.9-24-18.1c-12.9-11.7-27.5-25-46.1-31.1c-9.6-3.1-19.4-4.1-29-4.1 c-9.7,0-19.1,1-27.9,2c-9.3,1-24.8,2.7-28.4,1c-3.3-3.4-6.5-18.8-8.4-28c-3.6-17.4-7.7-37-19.4-53.2c-11.7-16-29-25.9-44.3-34.6 c-8.3-4.7-22.2-12.6-24.1-16.2c-0.5-4.6,5.8-18.5,9.5-26.8c7.4-16.4,15.8-35.1,15.8-55.6c0-20.5-8.3-39.2-15.8-55.6 c-3.7-8.3-9.9-22.2-9.7-26C250.2,270.7,264,262.8,272.3,258.1z M312.6,894.3l-42.5-82.1c-5.7-11-17.2-17.7-29.6-17.7h-2.9 l-91.7,8.1l127.6-233.1c4.7,19.8,12,41.2,31.4,55.4c23.6,17.1,52.1,14,75.1,11.6c10.5-1.1,23.5-2.5,29.2-0.7 c4.8,1.6,14.6,10.4,21.6,16.9c3.1,2.8,6.4,5.7,9.8,8.6L312.6,894.3z M762.3,794.6c-14.3-1-26.3,5.7-32.5,17.7l-42.5,82.1 l-128.1-233c3.4-2.9,6.7-5.9,9.8-8.7c7.1-6.5,16.8-15.3,21.6-16.9c5.6-1.8,18.7-0.4,29.2,0.7c22.9,2.5,51.6,5.6,75.1-11.6 c19.4-14.1,26.8-35.6,31.4-55.4l128.1,233.2L762.3,794.6z"/><path d="M413.7,384.3c3.4,3.1,4.9,7.7,4,12.2l-13.5,66.3c-3.6,17.5,15.1,31.1,30.7,22.3l58.8-33.4c4-2.3,8.9-2.3,12.9,0l58.8,33.4 c15.6,8.9,34.3-4.8,30.7-22.3l-13.6-66.2c-0.9-4.5,0.6-9.1,4-12.2l49.9-45.7c13.2-12.1,6-34.1-11.8-36.1l-67.2-7.5 c-4.6-0.5-8.5-3.4-10.4-7.5l-28-61.6c-7.4-16.3-30.6-16.3-38,0l-27.9,61.6c-1.9,4.1-5.9,7-10.4,7.5l-67.2,7.5 c-17.8,2-25,24.1-11.7,36.1L413.7,384.3z"/></g></svg>